<?xml version="1.0" encoding="UTF-8"?>
<!-- Generator: Adobe Illustrator 15.0.2, SVG Export Plug-In . SVG Version: 6.00 Build 0)  -->
<!DOCTYPE svg PUBLIC "-//W3C//DTD SVG 1.1//EN" "http://www.w3.org/Graphics/SVG/1.1/DTD/svg11.dtd">
<svg xmlns="http://www.w3.org/2000/svg" xmlns:xlink="http://www.w3.org/1999/xlink" version="1.1" id="Layer_1" x="0px" y="0px" width="24px" height="24px" viewBox="0 0 512 480.078" enable-background="new 0 0 512 480.078" xml:space="preserve">
<g>
	<path d="M511.772,20.188C510.63,8.864,501.188,0,489.564,0H21.815v0.062C10.48,0.374,1.351,9.071,0.227,20.188H0v374.63h0.451   c2.029,10.064,10.786,17.623,21.364,17.922v0.052h76.903v44.845c0,12.402,10.039,22.441,22.435,22.441   c7.754,0,14.581-3.936,18.61-9.922l57.37-57.364h292.438c10.87,0,19.916-7.728,21.987-17.974H512V20.188H511.772z M395.468,287.75   l-84.416-39.916v37.592c0,8.876-7.26,16.13-16.143,16.13H152.098c-8.87,0-16.14-7.254-16.14-16.13V129.598   c0-8.877,7.27-16.127,16.14-16.127h142.812c8.87,0,16.143,7.25,16.143,16.127v36.591l84.416-39.552V287.75z" fill="#337AB7"/>
</g>
</svg>
